# Blender 5.0.0
# www.blender.org
o Cone
v 0.000000 -2.000000 -1.000000
v 0.195090 -2.000000 -0.980785
v 0.382683 -2.000000 -0.923880
v 0.555570 -2.000000 -0.831470
v 0.707107 -2.000000 -0.707107
v 0.831470 -2.000000 -0.555570
v 0.923880 -2.000000 -0.382683
v 0.980785 -2.000000 -0.195090
v 1.000000 -2.000000 0.000000
v 0.980785 -2.000000 0.195090
v 0.923880 -2.000000 0.382683
v 0.831470 -2.000000 0.555570
v 0.707107 -2.000000 0.707107
v 0.555570 -2.000000 0.831470
v 0.382683 -2.000000 0.923880
v 0.195090 -2.000000 0.980785
v 0.000000 -2.000000 1.000000
v -0.195090 -2.000000 0.980785
v -0.382683 -2.000000 0.923880
v -0.555570 -2.000000 0.831470
v -0.707107 -2.000000 0.707107
v -0.831470 -2.000000 0.555570
v -0.923880 -2.000000 0.382683
v -0.980785 -2.000000 0.195090
v -1.000000 -2.000000 0.000000
v -0.980785 -2.000000 -0.195090
v -0.923880 -2.000000 -0.382683
v -0.831470 -2.000000 -0.555570
v -0.707107 -2.000000 -0.707107
v -0.555570 -2.000000 -0.831470
v -0.382683 -2.000000 -0.923880
v -0.195090 -2.000000 -0.980785
v 0.000000 0.000000 -0.000000
vn 0.3423 0.4472 -0.8263
vn -0.0000 1.0000 -0.0000
vn 0.4969 0.4472 -0.7437
vn -0.8263 0.4472 0.3423
vn -0.8772 0.4472 0.1745
vn 0.1745 0.4472 0.8772
vn -0.0000 0.4472 0.8944
vn 0.8944 0.4472 -0.0000
vn 0.8772 0.4472 0.1745
vn -0.6325 0.4472 -0.6325
vn -0.4969 0.4472 -0.7437
vn 0.1745 0.4472 -0.8772
vn -0.7437 0.4472 0.4969
vn 0.3423 0.4472 0.8263
vn 0.8772 0.4472 -0.1745
vn -0.7437 0.4472 -0.4969
vn -0.6325 0.4472 0.6325
vn 0.4969 0.4472 0.7437
vn -0.0000 0.4472 -0.8944
vn 0.8263 0.4472 -0.3423
vn -0.8263 0.4472 -0.3423
vn -0.4969 0.4472 0.7437
vn 0.6325 0.4472 0.6325
vn 0.7437 0.4472 -0.4969
vn -0.8772 0.4472 -0.1745
vn -0.3423 0.4472 0.8263
vn 0.7437 0.4472 0.4969
vn -0.1745 0.4472 -0.8772
vn 0.6325 0.4472 -0.6325
vn -0.8944 0.4472 -0.0000
vn -0.1745 0.4472 0.8772
vn 0.8263 0.4472 0.3423
vn -0.3423 0.4472 -0.8263
vn -0.0000 -1.0000 -0.0000
vt 0.841844 0.471731
vt 0.883337 0.449553
vt 0.528269 0.158156
vt 0.514612 0.203178
vt 0.796822 0.014612
vt 0.750000 0.010000
vt 0.990000 0.250000
vt 0.985388 0.203178
vt 0.580294 0.419706
vt 0.616663 0.449553
vt 0.796822 0.485388
vt 0.550447 0.116663
vt 0.841844 0.028269
vt 0.985388 0.296822
vt 0.550447 0.383337
vt 0.580294 0.080294
vt 0.883337 0.050447
vt 0.750000 0.490000
vt 0.971731 0.341844
vt 0.528269 0.341844
vt 0.616663 0.050447
vt 0.919706 0.080294
vt 0.949553 0.383337
vt 0.514612 0.296822
vt 0.658156 0.028269
vt 0.949553 0.116663
vt 0.703178 0.485388
vt 0.919706 0.419706
vt 0.510000 0.250000
vt 0.703178 0.014612
vt 0.971731 0.158156
vt 0.658156 0.471731
s 1
f 3/1/1 33/1/2 4/2/3
f 23/3/4 33/3/2 24/4/5
f 16/5/6 33/5/2 17/6/7
f 9/7/8 33/7/2 10/8/9
f 29/9/10 33/9/2 30/10/11
f 2/11/12 33/11/2 3/1/1
f 22/12/13 33/12/2 23/3/4
f 15/13/14 33/13/2 16/5/6
f 8/14/15 33/14/2 9/7/8
f 28/15/16 33/15/2 29/9/10
f 21/16/17 33/16/2 22/12/13
f 14/17/18 33/17/2 15/13/14
f 1/18/19 33/18/2 2/11/12
f 7/19/20 33/19/2 8/14/15
f 27/20/21 33/20/2 28/15/16
f 20/21/22 33/21/2 21/16/17
f 13/22/23 33/22/2 14/17/18
f 6/23/24 33/23/2 7/19/20
f 26/24/25 33/24/2 27/20/21
f 19/25/26 33/25/2 20/21/22
f 12/26/27 33/26/2 13/22/23
f 32/27/28 33/27/2 1/18/19
f 5/28/29 33/28/2 6/23/24
f 25/29/30 33/29/2 26/24/25
f 18/30/31 33/30/2 19/25/26
f 11/31/32 33/31/2 12/26/27
f 31/32/33 33/32/2 32/27/28
f 4/2/3 33/2/2 5/28/29
f 24/4/5 33/4/2 25/29/30
f 17/6/7 33/6/2 18/30/31
f 1/18/34 2/11/34 3/1/34 4/2/34 5/28/34 6/23/34 7/19/34 8/14/34 9/7/34 10/8/34 11/31/34 12/26/34 13/22/34 14/17/34 15/13/34 16/5/34 17/6/34 18/30/34 19/25/34 20/21/34 21/16/34 22/12/34 23/3/34 24/4/34 25/29/34 26/24/34 27/20/34 28/15/34 29/9/34 30/10/34 31/32/34 32/27/34
f 30/10/11 33/10/2 31/32/33
f 10/8/9 33/8/2 11/31/32
